<svg width="40" height="40" viewBox="0 0 40 40" fill="#fff" xmlns="http://www.w3.org/2000/svg">
<g clip-path="url(#clip0)">
<path d="M35.8802 15.9738C35.4128 13.921 33.6305 12.4342 31.5272 12.3428C30.154 7.58395 25.9973 4.15796 21.0637 3.71856C16.1301 3.27916 11.4338 5.91652 9.24068 10.3577C9.05093 10.3453 8.85922 10.3391 8.66556 10.3391C3.87971 10.3391 0 14.2188 0 19.0047C0 23.7905 3.87971 27.6703 8.66556 27.6703H9.33214C9.70026 27.6703 9.99872 27.3718 9.99872 27.0037C9.99872 26.6356 9.70026 26.3371 9.33214 26.3371H8.66556C5.93935 26.3358 3.43901 24.822 2.17388 22.4073C0.909064 19.9922 1.08808 17.0749 2.63899 14.833C4.19022 12.5911 6.85687 11.3947 9.56291 11.727C9.85421 11.7634 10.1354 11.6046 10.2546 11.3364C12.1117 7.16278 16.4204 4.63543 20.9693 5.05107C25.5182 5.46671 29.2974 8.73322 30.3675 13.1741C30.4431 13.4908 30.7366 13.7062 31.0615 13.6841C31.1474 13.6779 31.2379 13.672 31.328 13.672C33.0046 13.6724 34.4201 14.9186 34.633 16.5815C34.6675 16.8546 34.866 17.0782 35.1329 17.1449C37.4187 17.7178 38.9185 19.905 38.6292 22.2439C38.3398 24.5824 36.3521 26.3384 33.9957 26.3371H30.6628C30.2946 26.3371 29.9962 26.6356 29.9962 27.0037C29.9962 27.3718 30.2946 27.6703 30.6628 27.6703H33.9957C36.9426 27.6725 39.4549 25.5345 39.9236 22.6253C40.3923 19.7159 38.6787 16.8969 35.8802 15.9738Z" fill="white"/>
<path d="M19.9974 17.6715C18.525 17.6715 17.3311 18.865 17.3311 20.3378C17.3311 21.8103 18.525 23.0042 19.9974 23.0042C21.4699 23.0042 22.6638 21.8103 22.6638 20.3378C22.6638 18.865 21.4699 17.6715 19.9974 17.6715ZM19.9974 21.671C19.2612 21.671 18.6643 21.0741 18.6643 20.3378C18.6643 19.6016 19.2612 19.0047 19.9974 19.0047C20.7337 19.0047 21.3306 19.6016 21.3306 20.3378C21.3306 21.0741 20.7337 21.671 19.9974 21.671Z" fill="white"/>
<path d="M16.8599 22.5329L15.5267 23.866C15.3535 24.0333 15.2839 24.281 15.3451 24.5144C15.4059 24.7474 15.5879 24.9294 15.8209 24.9902C16.054 25.0514 16.302 24.9818 16.4693 24.8086L17.8024 23.4754C18.055 23.2138 18.0514 22.7981 17.7943 22.541C17.5372 22.2839 17.1215 22.2803 16.8599 22.5329Z" fill="white"/>
<path d="M22.1925 23.4754L23.5256 24.8086C23.7873 25.0612 24.203 25.0576 24.4601 24.8005C24.7172 24.5433 24.7208 24.1274 24.4682 23.866L23.1351 22.5329C22.8734 22.2803 22.4577 22.2839 22.2006 22.541C21.9435 22.7981 21.9399 23.2138 22.1925 23.4754Z" fill="white"/>
<path d="M13.3316 24.3373C11.8591 24.3373 10.6653 25.5309 10.6653 27.0037C10.6653 28.4761 11.8591 29.67 13.3316 29.67C14.8041 29.67 15.9979 28.4761 15.9979 27.0037C15.9979 25.5309 14.8041 24.3373 13.3316 24.3373ZM13.3316 28.3368C12.5954 28.3368 11.9984 27.7399 11.9984 27.0037C11.9984 26.2674 12.5954 25.6705 13.3316 25.6705C14.0678 25.6705 14.6648 26.2674 14.6648 27.0037C14.6648 27.7399 14.0678 28.3368 13.3316 28.3368Z" fill="white"/>
<path d="M19.9974 31.0032C18.525 31.0032 17.3311 32.1967 17.3311 33.6695C17.3311 35.142 18.525 36.3358 19.9974 36.3358C21.4699 36.3358 22.6638 35.142 22.6638 33.6695C22.6638 32.1967 21.4699 31.0032 19.9974 31.0032ZM19.9974 35.0027C19.2612 35.0027 18.6643 34.4057 18.6643 33.6695C18.6643 32.9333 19.2612 32.3363 19.9974 32.3363C20.7337 32.3363 21.3306 32.9333 21.3306 33.6695C21.3306 34.4057 20.7337 35.0027 19.9974 35.0027Z" fill="white"/>
<path d="M17.8024 31.4745C18.0625 31.2141 18.0625 30.7922 17.8024 30.5319L16.4693 29.1987C16.2076 28.9461 15.792 28.9497 15.5348 29.2068C15.2777 29.464 15.2741 29.8796 15.5267 30.1413L16.8599 31.4745C17.1202 31.7345 17.5421 31.7345 17.8024 31.4745Z" fill="white"/>
<path d="M26.6633 24.3373C25.1908 24.3373 23.9969 25.5309 23.9969 27.0037C23.9969 28.4761 25.1908 29.67 26.6633 29.67C28.1358 29.67 29.3296 28.4761 29.3296 27.0037C29.3296 25.5309 28.1358 24.3373 26.6633 24.3373ZM26.6633 28.3368C25.927 28.3368 25.3301 27.7399 25.3301 27.0037C25.3301 26.2674 25.927 25.6705 26.6633 25.6705C27.3995 25.6705 27.9964 26.2674 27.9964 27.0037C27.9964 27.7399 27.3995 28.3368 26.6633 28.3368Z" fill="white"/>
<path d="M23.5256 29.1987L22.1925 30.5319C22.0193 30.6992 21.9496 30.9468 22.0108 31.1802C22.0717 31.4133 22.2536 31.5952 22.4867 31.6561C22.7197 31.7173 22.9678 31.6476 23.135 31.4744L24.4682 30.1413C24.7208 29.8796 24.7172 29.464 24.4601 29.2068C24.2029 28.9497 23.7873 28.9461 23.5256 29.1987Z" fill="white"/>
</g>
<defs>
<clipPath id="clip0">
</clipPath>
</defs>
</svg>
