<svg height="480pt" viewBox="0 -44 480.0612 480" width="480pt" xmlns="http://www.w3.org/2000/svg"><path d="m430.617188 147.679688c-5.609376-24.636719-27-42.480469-52.242188-43.578126-16.480469-57.113281-66.367188-98.230468-125.578125-103.503906-59.210937-5.273437-115.574219 26.378906-141.894531 79.679688-2.277344-.148438-4.578125-.222656-6.902344-.222656-57.4375 0-104 46.5625-104 104s46.5625 104 104 104h8c4.417969 0 8-3.582032 8-8 0-4.417969-3.582031-8-8-8h-8c-32.71875-.015626-62.726562-18.183594-77.910156-47.164063-15.179688-28.984375-13.03125-63.996094 5.582031-90.902344 18.617187-26.90625 50.621094-41.265625 83.097656-37.277343 3.496094.4375 6.871094-1.46875 8.300781-4.6875 22.289063-50.089844 74-80.421876 128.59375-75.433594 54.59375 4.988281 99.949219 44.191406 112.792969 97.488281.90625 3.800781 4.429688 6.386719 8.328125 6.121094 1.03125-.074219 2.117188-.144531 3.199219-.144531 20.121094.003906 37.109375 14.960937 39.664063 34.917968.414062 3.277344 2.796874 5.960938 6 6.761719 27.433593 6.875 45.433593 33.125 41.960937 61.195313-3.472656 28.066406-27.328125 49.140624-55.609375 49.125h-40c-4.417969 0-8 3.582031-8 8 0 4.417968 3.582031 8 8 8h40c35.367188.027343 65.519531-25.632813 71.144531-60.546876 5.625-34.917968-14.941406-68.75-48.527343-79.828124zm0 0"/><path d="m240 168.054688c-17.671875 0-32 14.324218-32 32 0 17.671874 14.328125 32 32 32s32-14.328126 32-32c0-17.675782-14.328125-32-32-32zm0 48c-8.835938 0-16-7.164063-16-16 0-8.835938 7.164062-16 16-16s16 7.164062 16 16c0 8.835937-7.164062 16-16 16zm0 0"/><path d="m202.34375 226.398438-16 16c-2.078125 2.007812-2.914062 4.980468-2.179688 7.78125.730469 2.796874 2.914063 4.980468 5.710938 5.710937 2.796875.734375 5.773438-.101563 7.78125-2.179687l16-16c3.03125-3.140626 2.988281-8.128907-.097656-11.214844-3.085938-3.085938-8.074219-3.128906-11.214844-.097656zm0 0"/><path d="m266.34375 237.710938 16 16c3.140625 3.03125 8.128906 2.988281 11.214844-.097657 3.085937-3.085937 3.128906-8.078125.097656-11.214843l-16-16c-3.140625-3.03125-8.128906-2.988282-11.214844.097656-3.085937 3.085937-3.128906 8.074218-.097656 11.214844zm0 0"/><path d="m160 248.054688c-17.671875 0-32 14.324218-32 32 0 17.671874 14.328125 32 32 32s32-14.328126 32-32c0-17.675782-14.328125-32-32-32zm0 48c-8.835938 0-16-7.164063-16-16 0-8.835938 7.164062-16 16-16s16 7.164062 16 16c0 8.835937-7.164062 16-16 16zm0 0"/><path d="m240 328.054688c-17.671875 0-32 14.324218-32 32 0 17.671874 14.328125 32 32 32s32-14.328126 32-32c0-17.675782-14.328125-32-32-32zm0 48c-8.835938 0-16-7.164063-16-16 0-8.835938 7.164062-16 16-16s16 7.164062 16 16c0 8.835937-7.164062 16-16 16zm0 0"/><path d="m213.65625 333.710938c3.121094-3.125 3.121094-8.1875 0-11.3125l-16-16c-3.140625-3.03125-8.128906-2.988282-11.214844.097656-3.085937 3.085937-3.128906 8.074218-.097656 11.214844l16 16c3.125 3.121093 8.1875 3.121093 11.3125 0zm0 0"/><path d="m320 248.054688c-17.671875 0-32 14.324218-32 32 0 17.671874 14.328125 32 32 32s32-14.328126 32-32c0-17.675782-14.328125-32-32-32zm0 48c-8.835938 0-16-7.164063-16-16 0-8.835938 7.164062-16 16-16s16 7.164062 16 16c0 8.835937-7.164062 16-16 16zm0 0"/><path d="m282.34375 306.398438-16 16c-2.078125 2.007812-2.914062 4.980468-2.179688 7.78125.730469 2.796874 2.914063 4.980468 5.710938 5.710937 2.796875.734375 5.773438-.101563 7.78125-2.179687l16-16c3.03125-3.140626 2.988281-8.128907-.097656-11.214844-3.085938-3.085938-8.074219-3.128906-11.214844-.097656zm0 0"/></svg>