<svg width="41" height="48" viewBox="0 0 41 48" fill="none" xmlns="http://www.w3.org/2000/svg">
<path d="M37.2854 29.6906V21.6932C37.2854 21.2988 36.9657 20.9788 36.5709 20.9788C36.1762 20.9788 35.8564 21.2988 35.8564 21.6932V29.6906C34.8732 29.8579 34.0042 30.3644 33.3739 31.0854L24.3527 25.5732C24.5475 25.0862 24.6563 24.5555 24.6563 24C24.6563 23.4445 24.5479 22.9142 24.353 22.4271L33.3743 16.9149C34.0042 17.6356 34.8732 18.1417 35.8564 18.3094V19.3114C35.8564 19.7062 36.1762 20.0259 36.5709 20.0259C36.9657 20.0259 37.2854 19.7062 37.2854 19.3114V18.3094C39.2882 17.9685 40.8182 16.222 40.8182 14.1237C40.8182 11.7817 38.9128 9.87634 36.5709 9.87634C35.2972 9.87634 34.1532 10.441 33.3743 11.3324L24.353 5.81982C24.5479 5.33313 24.6563 4.80286 24.6563 4.24731C24.6563 1.9054 22.7509 0 20.4089 0C18.0674 0 16.162 1.9054 16.162 4.24731C16.162 4.80286 16.2704 5.3335 16.4652 5.82019L7.44397 11.332C6.66467 10.441 5.521 9.87634 4.24695 9.87634C1.9054 9.87634 0 11.7817 0 14.1237C0 16.2217 1.52966 17.9681 3.5321 18.3094V29.6906C1.52966 30.0319 0 31.7783 0 33.8763C0 34.2711 0.319702 34.5912 0.714478 34.5912C1.10925 34.5912 1.42896 34.2711 1.42896 33.8763C1.42896 32.3225 2.69312 31.0583 4.24695 31.0583C5.80115 31.0583 7.06531 32.3225 7.06531 33.8763C7.06531 35.4305 5.80078 36.6947 4.24695 36.6947C3.43652 36.6947 2.66455 36.345 2.12878 35.7352C1.86841 35.4386 1.41724 35.4097 1.12061 35.67C0.823975 35.9304 0.795044 36.382 1.05542 36.6786C1.86218 37.597 3.02564 38.1237 4.24695 38.1237C5.521 38.1237 6.66504 37.559 7.44397 36.6676L16.4652 42.1794C16.2704 42.6665 16.162 43.1971 16.162 43.7527C16.162 46.0946 18.0674 48 20.4089 48C22.7509 48 24.6563 46.0946 24.6563 43.7527C24.6563 43.1971 24.5479 42.6665 24.353 42.1798L33.3739 36.6676C34.1532 37.5586 35.2972 38.1237 36.5709 38.1237C38.9128 38.1237 40.8182 36.2183 40.8182 33.8763C40.8182 31.778 39.2882 30.0315 37.2854 29.6906ZM20.4089 26.818C18.8551 26.818 17.5909 25.5538 17.5909 24C17.5909 22.4462 18.8551 21.1816 20.4089 21.1816C21.9631 21.1816 23.2273 22.4462 23.2273 24C23.2273 25.5538 21.9628 26.818 20.4089 26.818ZM36.5709 11.3053C38.1251 11.3053 39.3893 12.5695 39.3893 14.1233C39.3893 15.6771 38.1248 16.9417 36.5709 16.9417C35.0171 16.9417 33.7529 15.6771 33.7529 14.1233C33.7529 12.5695 35.0171 11.3053 36.5709 11.3053ZM32.6272 12.5504C32.4324 13.0375 32.324 13.5677 32.324 14.1237C32.324 14.6792 32.4324 15.2098 32.6272 15.6965L23.6063 21.2087C22.9761 20.488 22.1071 19.9816 21.1238 19.8142V8.43274C22.1071 8.26538 22.9761 7.75928 23.6063 7.03821L32.6272 12.5504ZM20.4089 1.42896C21.9631 1.42896 23.2273 2.69312 23.2273 4.24695C23.2273 5.80078 21.9628 7.06531 20.4089 7.06531C18.8551 7.06531 17.5909 5.80078 17.5909 4.24695C17.5909 2.69312 18.8551 1.42896 20.4089 1.42896ZM17.2123 7.03857C17.8422 7.75928 18.7112 8.26538 19.6945 8.43274V19.8138C18.7112 19.9816 17.8422 20.4877 17.2119 21.2084L8.19067 15.6965C8.3855 15.2098 8.4939 14.6792 8.4939 14.1233C8.4939 13.5677 8.3855 13.0371 8.19067 12.55L17.2123 7.03857ZM1.42896 14.1237C1.42896 12.5695 2.69312 11.3053 4.24695 11.3053C5.80078 11.3053 7.06494 12.5695 7.06494 14.1237C7.06494 15.6775 5.80078 16.9417 4.24695 16.9417C2.69312 16.9417 1.42896 15.6775 1.42896 14.1237ZM4.96106 29.6906V18.3094C5.9447 18.1421 6.81335 17.6356 7.4436 16.9149L16.4652 22.4268C16.2704 22.9138 16.162 23.4445 16.162 24C16.162 24.5555 16.2704 25.0865 16.4652 25.5732L7.44397 31.0851C6.81372 30.3644 5.9447 29.8579 4.96106 29.6906ZM8.19067 35.4492C8.3855 34.9625 8.49426 34.4319 8.49426 33.8763C8.49426 33.3208 8.38587 32.7902 8.19104 32.3035L17.2123 26.7916C17.8425 27.5123 18.7112 28.0184 19.6945 28.1858V39.5669C18.7112 39.7343 17.8425 40.2407 17.2123 40.9611L8.19067 35.4492ZM20.4089 46.5707C18.8551 46.5707 17.5909 45.3065 17.5909 43.7527C17.5909 42.1989 18.8551 40.9347 20.4089 40.9347C21.9631 40.9347 23.2273 42.1989 23.2273 43.7527C23.2273 45.3065 21.9628 46.5707 20.4089 46.5707ZM23.606 40.9614C22.9757 40.2407 22.1071 39.7343 21.1238 39.5669V28.1858C22.1071 28.0184 22.9757 27.5123 23.606 26.7913L32.6272 32.3038C32.4324 32.7905 32.324 33.3208 32.324 33.8763C32.324 34.4319 32.4324 34.9622 32.6272 35.4492L23.606 40.9614ZM36.5709 36.6943C35.0171 36.6943 33.7529 35.4302 33.7529 33.8763C33.7529 32.3225 35.0171 31.0583 36.5709 31.0583C38.1251 31.0583 39.3893 32.3225 39.3893 33.8763C39.3893 35.4302 38.1251 36.6943 36.5709 36.6943Z" fill="white"/>
</svg>
