<svg xmlns="http://www.w3.org/2000/svg" height="511pt" version="1.1" viewBox="-38 1 511 511.999" width="511pt">
<g id="surface1">
<path d="M 398.210938 316.699219 L 398.210938 231.394531 C 398.210938 227.1875 394.800781 223.773438 390.589844 223.773438 C 386.378906 223.773438 382.96875 227.1875 382.96875 231.394531 L 382.96875 316.699219 C 372.480469 318.484375 363.210938 323.886719 356.488281 331.578125 L 260.261719 272.78125 C 262.339844 267.585938 263.5 261.925781 263.5 256 C 263.5 250.074219 262.34375 244.417969 260.265625 239.222656 L 356.492188 180.425781 C 363.210938 188.113281 372.480469 193.511719 382.96875 195.300781 L 382.96875 205.988281 C 382.96875 210.199219 386.378906 213.609375 390.589844 213.609375 C 394.800781 213.609375 398.210938 210.199219 398.210938 205.988281 L 398.210938 195.300781 C 419.574219 191.664062 435.894531 173.035156 435.894531 150.652344 C 435.894531 125.671875 415.570312 105.347656 390.589844 105.347656 C 377.003906 105.347656 364.800781 111.371094 356.492188 120.878906 L 260.265625 62.078125 C 262.34375 56.886719 263.5 51.230469 263.5 45.304688 C 263.5 20.324219 243.175781 0 218.195312 0 C 193.21875 0 172.894531 20.324219 172.894531 45.304688 C 172.894531 51.230469 174.050781 56.890625 176.128906 62.082031 L 79.902344 120.875 C 71.589844 111.371094 59.390625 105.347656 45.800781 105.347656 C 20.824219 105.347656 0.5 125.671875 0.5 150.652344 C 0.5 173.03125 16.816406 191.660156 38.175781 195.300781 L 38.175781 316.699219 C 16.816406 320.339844 0.5 338.96875 0.5 361.347656 C 0.5 365.558594 3.910156 368.972656 8.121094 368.972656 C 12.332031 368.972656 15.742188 365.558594 15.742188 361.347656 C 15.742188 344.773438 29.226562 331.289062 45.800781 331.289062 C 62.378906 331.289062 75.863281 344.773438 75.863281 361.347656 C 75.863281 377.925781 62.375 391.410156 45.800781 391.410156 C 37.15625 391.410156 28.921875 387.679688 23.207031 381.175781 C 20.429688 378.011719 15.617188 377.703125 12.453125 380.480469 C 9.289062 383.257812 8.980469 388.074219 11.757812 391.238281 C 20.363281 401.035156 32.773438 406.652344 45.800781 406.652344 C 59.390625 406.652344 71.59375 400.628906 79.902344 391.121094 L 176.128906 449.914062 C 174.050781 455.109375 172.894531 460.769531 172.894531 466.695312 C 172.894531 491.675781 193.21875 512 218.195312 512 C 243.175781 512 263.5 491.675781 263.5 466.695312 C 263.5 460.769531 262.34375 455.109375 260.265625 449.917969 L 356.488281 391.121094 C 364.800781 400.625 377.003906 406.652344 390.589844 406.652344 C 415.570312 406.652344 435.894531 386.328125 435.894531 361.347656 C 435.894531 338.964844 419.574219 320.335938 398.210938 316.699219 Z M 218.195312 286.058594 C 201.621094 286.058594 188.136719 272.574219 188.136719 256 C 188.136719 239.425781 201.621094 225.9375 218.195312 225.9375 C 234.773438 225.9375 248.257812 239.425781 248.257812 256 C 248.257812 272.574219 234.769531 286.058594 218.195312 286.058594 Z M 390.589844 120.589844 C 407.167969 120.589844 420.652344 134.074219 420.652344 150.648438 C 420.652344 167.222656 407.164062 180.710938 390.589844 180.710938 C 374.015625 180.710938 360.53125 167.222656 360.53125 150.648438 C 360.53125 134.074219 374.015625 120.589844 390.589844 120.589844 Z M 348.523438 133.871094 C 346.445312 139.066406 345.289062 144.722656 345.289062 150.652344 C 345.289062 156.578125 346.445312 162.238281 348.523438 167.429688 L 252.300781 226.226562 C 245.578125 218.539062 236.308594 213.136719 225.820312 211.351562 L 225.820312 89.949219 C 236.308594 88.164062 245.578125 82.765625 252.300781 75.074219 Z M 218.195312 15.242188 C 234.773438 15.242188 248.257812 28.726562 248.257812 45.300781 C 248.257812 61.875 234.769531 75.363281 218.195312 75.363281 C 201.621094 75.363281 188.136719 61.875 188.136719 45.300781 C 188.136719 28.726562 201.621094 15.242188 218.195312 15.242188 Z M 184.097656 75.078125 C 190.816406 82.765625 200.085938 88.164062 210.574219 89.949219 L 210.574219 211.347656 C 200.085938 213.136719 190.816406 218.535156 184.09375 226.222656 L 87.867188 167.429688 C 89.945312 162.238281 91.101562 156.578125 91.101562 150.648438 C 91.101562 144.722656 89.945312 139.0625 87.867188 133.867188 Z M 15.742188 150.652344 C 15.742188 134.074219 29.226562 120.589844 45.800781 120.589844 C 62.375 120.589844 75.859375 134.074219 75.859375 150.652344 C 75.859375 167.226562 62.375 180.710938 45.800781 180.710938 C 29.226562 180.710938 15.742188 167.226562 15.742188 150.652344 Z M 53.417969 316.699219 L 53.417969 195.300781 C 63.910156 193.515625 73.175781 188.113281 79.898438 180.425781 L 176.128906 239.21875 C 174.050781 244.414062 172.894531 250.074219 172.894531 256 C 172.894531 261.925781 174.050781 267.589844 176.128906 272.78125 L 79.902344 331.574219 C 73.179688 323.886719 63.910156 318.484375 53.417969 316.699219 Z M 87.867188 378.125 C 89.945312 372.933594 91.105469 367.273438 91.105469 361.347656 C 91.105469 355.421875 89.949219 349.761719 87.871094 344.570312 L 184.097656 285.777344 C 190.820312 293.464844 200.085938 298.863281 210.574219 300.648438 L 210.574219 422.046875 C 200.085938 423.832031 190.820312 429.234375 184.097656 436.917969 Z M 218.195312 496.753906 C 201.621094 496.753906 188.136719 483.269531 188.136719 466.695312 C 188.136719 450.121094 201.621094 436.636719 218.195312 436.636719 C 234.773438 436.636719 248.257812 450.121094 248.257812 466.695312 C 248.257812 483.269531 234.769531 496.753906 218.195312 496.753906 Z M 252.296875 436.921875 C 245.574219 429.234375 236.308594 423.832031 225.820312 422.046875 L 225.820312 300.648438 C 236.308594 298.863281 245.574219 293.464844 252.296875 285.773438 L 348.523438 344.574219 C 346.445312 349.765625 345.289062 355.421875 345.289062 361.347656 C 345.289062 367.273438 346.445312 372.929688 348.523438 378.125 Z M 390.589844 391.40625 C 374.015625 391.40625 360.53125 377.921875 360.53125 361.347656 C 360.53125 344.773438 374.015625 331.289062 390.589844 331.289062 C 407.167969 331.289062 420.652344 344.773438 420.652344 361.347656 C 420.652344 377.921875 407.167969 391.40625 390.589844 391.40625 Z M 390.589844 391.40625 " style=" stroke:none;fill-rule:nonzero;fill:#fff;fill-opacity:1;" />
</g>
</svg>