<svg width="52" height="40" viewBox="0 0 52 40" fill="none" xmlns="http://www.w3.org/2000/svg">
<path fill-rule="evenodd" clip-rule="evenodd" d="M43.5878 39.6806C41.0163 39.6806 38.7296 38.4467 37.2678 36.5325L27.1558 38.2112H26.4506H25.0394L14.5037 36.2714C13.0547 38.3341 10.679 39.6806 7.99232 39.6806C3.57824 39.6806 0 36.0499 0 31.5712C0 28.7706 1.39904 26.3014 3.52704 24.8442V2.14272V0.714239V0L25.0394 3.5712H27.1552L48.6675 0V0.35712V2.14272V25.3101C50.4461 26.7974 51.5795 29.0496 51.5795 31.5706C51.5802 36.0499 48.0019 39.6806 43.5878 39.6806ZM2.85824 30.8518V32.3398H13.079V30.8518H2.85824ZM25.0394 5.71392L5.64288 2.14272V23.8176C6.38592 23.5859 7.1744 23.4611 7.99232 23.4611C12.407 23.4611 15.9853 27.0918 15.9853 31.5706C15.9853 32.5338 15.8189 33.4573 15.5149 34.3142L25.0394 36.0678V5.71392ZM46.5523 2.14272L27.1558 5.71392V36.0685L36.1043 34.4211C35.776 33.5341 35.5955 32.5741 35.5955 31.5712C35.5955 27.0925 39.1738 23.4618 43.5885 23.4618C44.6362 23.4618 45.6358 23.6685 46.553 24.0403L46.5523 2.14272ZM44.3142 30.8518V26.4371H42.8608V30.8518H38.4525V32.3398H42.8608V36.7546H44.3142V32.3398H48.6739V30.8518H44.3142ZM28.919 19.9987L44.4365 17.1418V18.9274L28.919 21.7843V19.9987ZM28.919 14.6419L44.4365 11.785V13.5706L28.919 16.4275V14.6419ZM28.919 9.28512L44.4365 6.42816V8.21376L28.919 11.0707V9.28512ZM7.05344 17.1418L22.5709 19.9987V21.7843L7.05344 18.9274V17.1418ZM7.05344 11.785L22.5709 14.6419V16.4275L7.05344 13.5706V11.785ZM7.05344 6.42816L22.5709 9.28512V11.0707L7.05344 8.21376V6.42816Z" fill="white"/>
</svg>
