<svg width="52" height="40" viewBox="0 0 52 40" fill="none" xmlns="http://www.w3.org/2000/svg">
<path d="M37.6652 36.229L37.4827 35.99L37.186 36.0392L27.1146 37.7112H26.4506H25.085L14.5942 35.7796L14.2789 35.7216L14.0945 35.984C12.7339 37.921 10.5072 39.1806 7.99232 39.1806C3.86122 39.1806 0.5 35.7807 0.5 31.5712C0.5 28.9405 1.81353 26.6236 3.80955 25.2567L4.02704 25.1078V24.8442V2.14272V0.714239V0.589846L24.9575 4.06445L24.9981 4.0712H25.0394H27.1552H27.1964L27.2371 4.06445L48.1675 0.589846V2.14272V25.3101V25.5437L48.3468 25.6936C50.0154 27.0891 51.0795 29.2024 51.0795 31.5706V31.5706C51.0801 35.7807 47.7189 39.1806 43.5878 39.1806C41.1807 39.1806 39.0377 38.0263 37.6652 36.229ZM2.85824 30.3518H2.35824V30.8518V32.3398V32.8398H2.85824H13.079H13.579V32.3398V30.8518V30.3518H13.079H2.85824ZM25.5394 5.71392V5.29757L25.1299 5.22218L5.73342 1.65098L5.14288 1.54226V2.14272V23.8176V24.4972L5.79171 24.2949C6.48726 24.0781 7.22559 23.9611 7.99232 23.9611C12.1241 23.9611 15.4853 27.3611 15.4853 31.5706C15.4853 32.4758 15.3289 33.3428 15.0437 34.1471L14.8476 34.6998L15.4243 34.806L24.9488 36.5596L25.5394 36.6683V36.0678V5.71392ZM47.0523 2.14271L47.0523 1.54226L46.4618 1.65098L27.0653 5.22218L26.6558 5.29757V5.71392V36.0685V36.6689L27.2464 36.5602L36.1948 34.9129L36.7796 34.8052L36.5732 34.2476C36.2651 33.415 36.0955 32.5137 36.0955 31.5712C36.0955 27.3618 39.4567 23.9618 43.5885 23.9618C44.5698 23.9618 45.5058 24.1553 46.3651 24.5037L47.053 24.7826L47.053 24.0403L47.0523 2.14271ZM38.4525 32.8398H42.3608V36.7546V37.2546H42.8608H44.3142H44.8142V36.7546V32.8398H48.6739H49.1739V32.3398V30.8518V30.3518H48.6739H44.8142V26.4371V25.9371H44.3142H42.8608H42.3608V26.4371V30.3518H38.4525H37.9525V30.8518V32.3398V32.8398H38.4525ZM29.419 21.1839V20.4151L43.9365 17.7422V18.511L29.419 21.1839ZM29.419 15.8271V15.0583L43.9365 12.3854V13.1542L29.419 15.8271ZM29.419 10.4703V9.70147L43.9365 7.02862V7.79741L29.419 10.4703ZM7.55344 18.511V17.7422L22.0709 20.4151V21.1839L7.55344 18.511ZM7.55344 13.1542V12.3854L22.0709 15.0583V15.8271L7.55344 13.1542ZM7.55344 7.79741V7.02862L22.0709 9.70147V10.4703L7.55344 7.79741Z" fill="white" stroke="white"/>
</svg>
